<svg width="30" height="30" viewBox="0 0 30 30" fill="none" xmlns="http://www.w3.org/2000/svg">
<path d="M16.875 6.40356V20.6243C16.875 21.6614 16.0371 22.4993 15 22.4993C13.9629 22.4993 13.125 21.6614 13.125 20.6243V6.40356L8.82422 10.7043C8.0918 11.4368 6.90234 11.4368 6.16992 10.7043C5.4375 9.97192 5.4375 8.78247 6.16992 8.05005L13.6699 0.550049C14.4023 -0.182373 15.5918 -0.182373 16.3242 0.550049L23.8242 8.05005C24.5566 8.78247 24.5566 9.97192 23.8242 10.7043C23.0918 11.4368 21.9023 11.4368 21.1699 10.7043L16.875 6.40356ZM3.75 20.6243H11.25C11.25 22.6926 12.9316 24.3743 15 24.3743C17.0684 24.3743 18.75 22.6926 18.75 20.6243H26.25C28.3184 20.6243 30 22.3059 30 24.3743V26.2493C30 28.3176 28.3184 29.9993 26.25 29.9993H3.75C1.68164 29.9993 0 28.3176 0 26.2493V24.3743C0 22.3059 1.68164 20.6243 3.75 20.6243ZM25.3125 26.718C25.6855 26.718 26.0431 26.5699 26.3069 26.3061C26.5706 26.0424 26.7188 25.6847 26.7188 25.3118C26.7188 24.9388 26.5706 24.5811 26.3069 24.3174C26.0431 24.0537 25.6855 23.9055 25.3125 23.9055C24.9395 23.9055 24.5819 24.0537 24.3181 24.3174C24.0544 24.5811 23.9062 24.9388 23.9062 25.3118C23.9062 25.6847 24.0544 26.0424 24.3181 26.3061C24.5819 26.5699 24.9395 26.718 25.3125 26.718Z" fill="#16A34A"/>
</svg>
