<svg width="21" height="20" viewBox="0 0 21 20" fill="none" xmlns="http://www.w3.org/2000/svg">
<path d="M10.7545 0C11.1059 0 11.4267 0.197456 11.5795 0.512627L14.1996 5.87812L20.051 6.7363C20.3948 6.78566 20.6812 7.02489 20.7882 7.35525C20.8951 7.68561 20.8073 8.04255 20.5628 8.28557L16.3194 12.4701L17.3201 18.3786C17.3774 18.7204 17.2361 19.0659 16.9496 19.271C16.6632 19.476 16.2889 19.4988 15.9833 19.3355L10.7507 16.556L5.52568 19.3317C5.2163 19.495 4.84199 19.4722 4.55936 19.2672C4.27672 19.0621 4.13158 18.7166 4.18887 18.3748L5.18956 12.4663L0.946162 8.28557C0.697898 8.04255 0.61387 7.68181 0.720815 7.35525C0.827759 7.02869 1.11422 6.78946 1.45797 6.7363L7.30936 5.87812L9.92949 0.512627C10.0861 0.197456 10.4031 0 10.7545 0ZM10.7545 2.99982L8.74929 7.10843C8.6156 7.37803 8.3597 7.5679 8.05797 7.61346L3.53956 8.27418L6.82047 11.5056C7.03054 11.7145 7.12984 12.0107 7.08019 12.3031L6.30484 16.8483L10.3229 14.7143C10.5941 14.57 10.9187 14.57 11.1861 14.7143L15.2041 16.8483L14.4326 12.3068C14.383 12.0145 14.4785 11.7183 14.6923 11.5094L17.9732 8.27798L13.4548 7.61346C13.1569 7.5679 12.8972 7.38183 12.7635 7.10843L10.7545 2.99982Z" fill="black"/>
</svg>
