<svg width="21" height="20" viewBox="0 0 21 20" fill="none" xmlns="http://www.w3.org/2000/svg">
<path d="M11.1817 0.6875C10.9792 0.267361 10.5515 0 10.0817 0C9.61188 0 9.18792 0.267361 8.98167 0.6875L6.52577 5.74062L1.04104 6.55035C0.582712 6.6191 0.200767 6.93993 0.0594476 7.37917C-0.0818719 7.8184 0.0327113 8.30347 0.361184 8.62812L4.34104 12.566L3.40146 18.1309C3.32507 18.5892 3.51604 19.0552 3.89417 19.3264C4.27229 19.5976 4.77264 19.6319 5.18514 19.4142L10.0855 16.7979L14.9858 19.4142C15.3983 19.6319 15.8987 19.6014 16.2768 19.3264C16.6549 19.0514 16.8459 18.5892 16.7695 18.1309L15.8261 12.566L19.806 8.62812C20.1344 8.30347 20.2528 7.8184 20.1077 7.37917C19.9626 6.93993 19.5844 6.6191 19.1261 6.55035L13.6376 5.74062L11.1817 0.6875Z" fill="black"/>
</svg>
